<svg width="333" height="325" viewBox="0 0 333 325" fill="none" xmlns="http://www.w3.org/2000/svg">
<g opacity="0.5" clip-path="url(#clip0_487_10077)">
<path opacity="0.12" d="M13.7334 319.65C13.7334 322.015 84.2508 324.759 165.503 324.759C246.756 324.759 312.623 322.842 312.623 320.477C312.623 318.111 246.756 316.194 165.503 316.194C84.2508 316.194 13.7334 317.282 13.7334 319.648V319.65Z" fill="#306A41"/>
<path d="M278.728 318.044C275.396 318.472 52.1816 321.897 52.1816 318.044V291.074C52.5825 265.389 51.3638 251.317 54.9772 249.975C55.4509 249.798 56.9773 249.701 59.2749 249.657C69.4046 249.47 94.5083 250.336 110.28 250.161C118.258 250.074 123.849 249.721 123.906 248.828C124.08 245.998 123.329 215.09 126.665 209.735C126.93 209.307 127.223 209.076 127.549 209.072C128.564 209.062 132.892 208.912 138.964 208.75L162.53 208.645L183.939 208.547C184.289 208.559 184.637 208.574 184.979 208.588C190.37 208.813 194.799 209.19 197.429 209.784C198.98 210.132 199.907 210.558 200.04 211.069C201.245 215.724 198.575 276.568 200.563 276.53C201.318 276.516 204.03 276.469 208.012 276.414C223.308 276.201 257.349 275.869 271.266 276.799C274.91 277.043 277.173 277.373 277.362 277.815C278.445 280.385 282.06 317.615 278.726 318.042L278.728 318.044Z" fill="white"/>
<path opacity="0.23" d="M197.431 209.611C190.84 210.211 177.095 210.625 161.204 210.625C147.153 210.625 134.272 210.163 126.665 209.569C126.93 209.202 127.223 209.005 127.549 209.001C128.563 208.991 132.891 208.866 138.964 208.726L162.53 208.634L184.983 208.586C190.374 208.78 194.803 209.103 197.433 209.611H197.431Z" fill="#306A41"/>
<path d="M158.489 227.816L154.699 229.188C152.189 227.445 152.39 223.021 155.76 222.013C159.24 220.341 164.782 218.483 164.93 224.449C164.297 224.899 166.378 249.306 163.699 247.766C161.129 248.372 158.141 247.622 158.489 244.377V227.814V227.816Z" fill="#6F977A"/>
<path d="M85.0326 269.975C89.8626 269.783 94.2413 273.263 94.0894 278.212C94.5915 283.236 88.2695 288.34 84.6176 291.719H93.7109C94.385 293.036 94.719 295.78 93.7494 296.879C93.3971 298.271 80.0528 297.288 79.0102 297.566C73.1458 291.933 82.6135 286.171 85.7938 282.221C88.2007 280.097 88.2756 275.889 84.3524 275.999C81.984 275.379 79.7066 279.193 78.5932 276.398C76.7653 272.168 80.8989 269.722 85.0346 269.977L85.0326 269.975Z" fill="#6F977A"/>
<path d="M239.47 286.838C246.189 285.991 249.709 294.651 244.173 298.164C249.272 300.379 247.912 308.737 242.673 309.951C239.324 310.908 233.179 310.683 232.903 306.613C233.525 300.535 236.905 307.756 241.159 304.769C243.976 300.726 239.069 300.663 236.219 300.859C235.507 299.507 235.466 297.325 236.219 295.989H239.187C241.405 296.206 242.195 293.678 240.733 292.41C237.582 289.929 233.733 295.612 233.442 290.417C233.557 287.359 236.598 286.919 239.47 286.838Z" fill="#6F977A"/>
<path d="M142.847 204.522C142.756 202.722 143.092 198.19 143.092 198.19L147.847 198.235L147.28 205.039L144.043 207.062L142.847 204.522Z" fill="white"/>
<path d="M142.511 203.752C142.013 203.63 142.219 204.107 142.031 204.858C141.602 206.581 135.339 206.601 134.393 206.753C133.906 206.833 133.108 209.362 135.535 209.362C137.632 209.362 144.353 209.386 146.649 209.372C147.128 209.368 147.549 209.044 147.667 208.578C148.088 206.914 147.985 204.329 147.345 204.273C146.377 203.959 144.584 204.256 142.511 203.75V203.752Z" fill="#1D5D2F"/>
<path d="M189.336 200.483C187.908 199.386 184.68 196.192 184.68 196.192L187.797 192.596L192.603 197.438L192.044 201.218L189.338 200.485L189.336 200.483Z" fill="white"/>
<path d="M188.532 200.241C188.117 200.541 188.613 200.693 189.065 201.326C190.097 202.769 186.052 207.558 185.554 208.377C185.297 208.801 186.706 211.048 188.279 209.198C189.64 207.599 194.014 202.491 195.49 200.73C195.8 200.361 195.824 199.83 195.546 199.439C194.555 198.04 192.522 196.443 192.063 196.895C191.196 197.428 190.261 198.989 188.532 200.243V200.241Z" fill="#1D5D2F"/>
<path d="M187.198 199.309C187.198 199.309 172.022 186.786 167.592 176.903C164.744 169.296 163.989 160.731 162.489 153.5C162.489 153.5 155.726 169.898 153.446 175.488C151.165 181.076 149.386 201.413 149.26 202.615C149.135 203.819 142.09 201.918 142.242 201.095C142.394 200.272 145.562 177.006 146.098 173.06C146.634 169.114 152.683 141.868 155.367 134.304L158.339 135.068C158.339 135.068 173.293 137.208 173.455 138.283C173.534 138.814 173.607 139.371 173.671 139.955C173.673 139.973 173.675 139.991 173.677 140.011C173.989 142.81 174.151 146.163 174.23 149.665C174.459 159.734 173.989 171.044 174.368 174.047C174.904 178.32 188.965 191.082 191.649 194.698C192.186 194.862 190.599 197.173 187.2 199.309H187.198Z" fill="#397149"/>
<path d="M165.147 108.527L169.297 108.371C169.769 106.594 171.846 102.672 171.955 101.004C172.076 99.1737 171.896 99.2304 171.896 99.2304L168.811 100.191L167.36 100.643C167.36 100.643 167.335 101.391 166.748 102.514C166.337 103.298 165.649 104.267 164.501 105.293C163.641 106.059 165.147 108.529 165.147 108.529V108.527Z" fill="#C0D2C5"/>
<path opacity="0.14" d="M167.36 100.643C167.36 100.643 167.244 101.559 166.657 102.682C168.797 104.374 170.671 102.881 170.23 102.048C169.955 101.527 168.811 100.191 168.811 100.191L167.36 100.643Z" fill="#1D5D2F"/>
<path d="M169.987 93.7175C168.892 94.7978 165.72 95.945 166.509 96.6179C167.297 97.2908 164.192 98.9 165.003 99.6459C166.973 101.454 170.406 102.175 171.507 101.421C172.609 100.667 174.815 97.8116 174.815 97.8116L169.985 93.7175H169.987Z" fill="#C0D2C5"/>
<path d="M171.115 96.63C170.412 96.1558 170.263 96.2895 169.999 95.6876C169.738 95.0856 171.042 95.1343 170.325 94.2769C169.609 93.4216 168.736 92.5825 169.469 91.5509C170.53 90.0592 171.57 91.328 172.192 92.1387C172.591 92.6596 173.621 91.7049 174.556 92.5866C175.289 93.2777 174.817 93.6486 175.445 94.2952C175.823 94.6863 177.208 94.6985 177.425 95.7443C177.826 97.684 175.864 97.9596 176.014 99.7898C176.186 101.924 171.419 102.066 171.362 101.504C171.295 100.85 172.846 100.124 172.718 99.5304C172.526 98.6366 172.054 99.048 171.216 99.0865C170.321 99.127 169.386 98.371 170.744 97.9758C172.103 97.5806 171.755 97.0557 171.117 96.626L171.115 96.63Z" fill="#1D5D2F"/>
<path opacity="0.57" d="M160.027 158.883C161.442 155.77 162.487 153.498 162.487 153.498C162.08 151.323 161.782 148.773 161.782 148.773C161.782 148.773 160.305 155.166 160.027 158.883Z" fill="#1D5D2F"/>
<path d="M189.08 147.626C189.08 147.626 189.064 147.636 189.064 147.646C188.951 148.575 188.696 148.333 188.378 149.551C188.058 150.776 187.046 152.488 187.677 152.669C188.311 152.849 188.787 152.107 189.092 151.955C189.398 151.803 188.706 152.529 189.086 153.115C189.467 153.7 191.056 154.016 191.769 153.544C192.481 153.07 192.969 152.123 192.987 150.905C193.006 149.687 192.39 148.041 192.263 147.51C192.139 147 189.313 147.579 189.08 147.628V147.626Z" fill="#BED0C3"/>
<path d="M155.671 73.8164C155.671 73.8164 155.849 71.8322 155.738 70.2331C155.653 69.0089 157.304 66.7328 157.149 66.2261C156.954 65.5958 156.005 65.8592 155.709 66.0315C155.414 66.2038 155.788 64.5297 155.373 63.9683C154.778 63.1636 152.393 63.1373 151.9 63.9683C151.462 64.706 151.539 66.0275 151.604 67.2456C151.669 68.4637 151.835 71.1431 151.94 72.4929C151.98 73.0158 155.444 73.8813 155.673 73.8164H155.671Z" fill="#BED0C3"/>
<path opacity="0.28" d="M174.228 149.663C172.021 148.058 167.299 145.301 165.776 140.019L173.669 139.953C173.671 139.971 173.673 139.989 173.675 140.009C173.987 142.808 174.149 146.161 174.228 149.663Z" fill="#1D5D2F"/>
<path d="M171.363 104.5C169.863 103.695 168.691 105.505 167.378 105.26C166.58 105.112 166.78 104.407 166.515 103.933C166.351 103.641 165.882 103.71 165.246 103.604C163.576 103.329 155.365 135.623 155.365 135.623C155.365 135.623 159.582 138.031 162.912 138.773C166.244 139.515 171.841 139.614 171.999 138.422C172.157 137.231 174.04 106.944 174.04 106.944C174.04 106.944 172.864 105.303 171.363 104.498V104.5Z" fill="white"/>
<path d="M193.394 147.131C193.394 147.131 193.39 147.14 193.386 147.144C192.775 147.585 189.959 147.616 188.157 147.583C188.147 147.583 188.137 147.577 188.137 147.565C187.983 146.169 188.005 141.375 186.712 134.456C185.447 129.598 178.673 122.277 178.048 121.691C178.048 121.697 178.048 121.705 178.048 121.716C178.042 121.784 178.026 121.87 177.995 121.971V121.977C177.989 121.999 177.981 122.024 177.973 122.046V122.052L177.971 122.054C177.961 122.086 177.949 122.121 177.936 122.157C177.92 122.204 177.902 122.255 177.882 122.307C177.787 122.561 177.657 122.869 177.501 123.215C177.471 123.282 177.439 123.353 177.406 123.424C177.036 124.245 176.56 125.252 176.129 126.278C176.088 126.377 176.048 126.476 176.005 126.576C175.945 126.724 175.886 126.874 175.827 127.02C175.768 127.168 175.712 127.316 175.659 127.461C175.657 127.468 175.655 127.476 175.653 127.482C175.53 127.818 175.422 128.286 175.327 128.85C175.293 129.057 175.258 129.275 175.228 129.504C174.716 133.228 177.418 141.104 177.647 143.187C177.93 145.757 175.272 145.887 174.224 145.058C173.362 144.375 168.485 143.291 166.568 141.351C164.649 139.411 166.001 135.822 166.546 133.313C167.1 130.773 165.315 125.313 167.865 120.674C171.06 114.863 170.999 106.365 171.633 104.601C171.633 104.601 178.028 108.896 180.562 112.334C184.378 117.508 191.641 128.992 192.145 133.218C192.686 137.725 194.261 144.6 193.396 147.125L193.394 147.131Z" fill="#538361"/>
<path opacity="0.28" d="M178.046 121.716L177.971 122.046V122.052L177.969 122.054C177.959 122.086 177.947 122.121 177.935 122.157C177.918 122.204 177.9 122.255 177.88 122.307C177.785 122.561 177.655 122.869 177.499 123.215C177.469 123.282 177.437 123.353 177.404 123.424C177.034 124.245 176.558 125.252 176.127 126.278C176.086 126.377 176.046 126.476 176.003 126.576C175.943 126.724 175.884 126.874 175.825 127.02C175.767 127.168 175.71 127.316 175.655 127.461C175.653 127.468 175.651 127.476 175.649 127.482C175.526 127.818 175.418 128.286 175.323 128.85C175.139 125.662 175.068 120.651 175.514 119.389C175.514 119.389 177.319 120.651 178.044 121.711L178.046 121.716Z" fill="#1D5D2F"/>
<path d="M165.295 103.655C160.22 97.313 157.973 91.413 157.266 87.8154C156.56 84.2179 156.839 71.4978 156.839 70.2999C156.839 69.5987 151.163 69.6777 151.242 70.8066C151.294 71.5586 150.659 84.078 151.513 88.9059C152.222 92.9088 155.989 105.773 157.11 108.134C158.365 110.775 156.736 123.286 155.918 125.374C155.1 127.461 152.323 137.751 154.211 139.328C155.962 140.792 160.6 141.698 161.511 140.648C162.355 139.675 158.819 127.992 160.029 122.461C161.24 116.93 161.21 115.645 163.153 109.63" fill="#538361"/>
<path opacity="0.18" d="M167.732 105.783C167.892 105.675 169.499 108.829 171.669 109.869C172.269 110.157 172.912 110.355 173.584 110.392C175.548 110.501 178.686 110.23 178.686 110.23C178.686 110.23 177.214 108.76 176.178 108.067C174.388 108.635 174.825 108.519 173.799 108.408C173.038 108.325 172.319 108.112 171.653 107.822C170.4 107.281 169.333 106.472 168.526 105.771C168.115 105.412 168.052 104.867 167.558 104.847C166.902 104.82 167.528 105.919 167.732 105.783Z" fill="#1D5D2F"/>
<path d="M166.738 105.138C166.758 104.828 166.977 104.324 167.631 104.35C168.125 104.37 168.165 104.571 168.576 104.928C169.813 106.004 171.661 107.325 173.852 107.564C176.042 107.804 181.038 104.924 184.279 105.627C187.52 106.332 188.506 109.241 193.184 109.986C197.862 110.732 202.893 108.752 204.271 108.991C205.652 109.228 206.488 109.53 206.453 110.078C206.419 110.625 205.731 111.531 204.763 111.918C203.795 112.305 195.253 112.887 192.998 112.585C189.315 112.09 186.151 108.764 183.779 108.554C181.406 108.343 176.416 109.705 173.635 109.549C170.534 109.376 168.011 105.761 167.807 105.898C167.603 106.036 167.414 106.168 167.015 106.069C166.742 106 166.718 105.451 166.736 105.138H166.738Z" fill="#ADC5B4"/>
<path d="M155.623 67.1686C156.293 66.0012 155.813 66.3315 155.904 65.6303C155.969 65.1378 156.218 64.9695 156.758 65.4094C157.272 65.8269 157.218 66.1127 157.147 66.4086C157.054 66.7937 156.778 67.349 156.778 67.349L155.623 67.1666V67.1686Z" fill="#BED0C3"/>
<path d="M155.465 64.2805C155.671 64.6169 155.604 65.4013 155.604 65.5715C155.604 65.8046 155.633 66.3822 154.934 66.5383C154.141 66.7146 152.213 66.8301 151.902 66.4613C151.59 66.0924 151.493 64.8338 151.707 64.4041C151.922 63.9744 155.465 64.2805 155.465 64.2805Z" fill="#BED0C3"/>
<path d="M119.858 40.5913C124.844 39.8089 125.555 37.5592 126.48 30.587C127.126 37.2025 127.95 39.7116 133.019 40.4656C128.597 42.3525 127.043 43.0376 126.255 50.6826C125.166 42.9383 124.195 42.2553 119.856 40.5913H119.858Z" fill="white"/>
<path d="M163.234 66.0519C163.234 66.0519 162.27 65.1155 161.861 65.1155C161.452 65.1155 161.056 65.4337 161.837 66.5889C162.621 67.7462 163.234 66.0498 163.234 66.0498V66.0519Z" fill="#C0D2C5"/>
<path d="M156.475 10.5645C161.724 6.44197 162.376 13.2114 162.24 17.8933C162.206 19.0587 161.511 20.2039 160.41 20.897C156.946 23.0738 149.485 27.7638 149.485 27.7638C148.833 26.1403 151.112 14.8612 156.475 10.5645ZM200.716 63.5771C200.793 63.4555 200.862 63.3319 200.923 63.2123C200.979 63.0947 201.028 62.9752 201.069 62.8536C202.473 58.7635 194.156 55.02 189.303 52.2697C188.775 51.9677 188.817 51.2279 189.37 50.8185C190.423 50.0301 191.16 48.4026 191.026 47.0993C191.006 46.8987 190.965 46.7061 190.9 46.5258C190.886 46.4812 190.87 46.4346 190.85 46.394C190.83 46.3474 190.809 46.3069 190.787 46.2663C190.724 46.1427 190.655 46.013 190.583 45.8752C190.579 45.861 190.572 45.8508 190.564 45.8367C190.455 45.6421 190.34 45.4293 190.214 45.2002C189.989 44.7989 189.732 44.353 189.449 43.8646C189.392 43.7673 189.336 43.668 189.275 43.5667C189.164 43.3822 189.052 43.1897 188.939 42.9951C188.866 42.8775 188.791 42.7519 188.716 42.6262C188.651 42.5168 188.583 42.4073 188.518 42.2938C188.388 42.0729 188.249 41.8418 188.107 41.6088L188.008 41.4487C182.659 32.6159 172.552 17.1333 171.997 16.1645C171.408 15.1308 169.898 14.9322 168.72 15.674C161.471 19.9404 170.823 -7.97255 156.738 2.37015C150.128 7.42699 145.647 21.4625 145.201 27.3564C145.055 29.2514 144.13 31.1343 142.62 32.5855C137.098 37.8957 135.333 45.6907 138.651 51.6839C138.736 51.8339 138.802 51.9961 138.853 52.1643C138.897 52.3305 138.93 52.5048 138.94 52.6791C138.962 53.0317 138.902 53.3966 138.746 53.7472C138.248 54.8944 137.07 55.3808 135.29 56.3354C135.217 56.378 135.138 56.4124 135.061 56.4469C135.013 56.4692 134.958 56.4935 134.912 56.5097C134.853 56.5381 134.788 56.5604 134.723 56.5786C134.527 56.6475 134.327 56.6962 134.128 56.7266C134.063 56.7387 133.999 56.7448 133.934 56.7489C133.59 56.7833 133.25 56.761 132.928 56.682C132.857 56.6637 132.792 56.6455 132.723 56.6252C132.723 56.6252 132.723 56.6239 132.721 56.6212C132.659 56.6009 132.6 56.5786 132.541 56.5584C132.462 56.5259 132.381 56.4915 132.31 56.4489C132.114 56.3455 131.934 56.2158 131.772 56.0577C127.638 52.0589 120.764 51.0333 114.697 54.9045C99.1175 66.7592 104.636 55.2653 93.1882 55.5146C73.6332 62.2151 126.691 128.651 121.998 91.4394C121.729 89.3072 122.915 87.0554 124.974 85.7401C128.43 83.5369 131.531 81.6541 131.604 81.5041C132.509 80.9345 133.335 80.2941 134.078 79.5948C136.159 77.6309 137.567 75.217 138.205 72.724C138.782 70.4459 138.709 68.1009 137.904 65.9627C137.879 65.8877 137.849 65.8107 137.816 65.7377C137.762 65.608 137.709 65.4783 137.653 65.3526C137.628 65.2999 137.608 65.2452 137.59 65.1884C137.574 65.1357 137.557 65.077 137.545 65.0222C137.521 64.9108 137.509 64.7973 137.509 64.6817C137.505 64.5662 137.517 64.4507 137.535 64.3351C137.636 63.7535 138.005 63.192 138.563 62.8049C139.497 62.1645 140.659 61.4551 141.618 60.8754C141.792 60.77 141.96 60.6707 142.116 60.5714C142.165 60.541 142.213 60.5147 142.266 60.4903C142.361 60.4397 142.462 60.3991 142.566 60.3707C143.217 60.1701 143.9 60.3383 144.339 60.7964C144.347 60.8004 144.355 60.8085 144.357 60.8126C148.205 66.9497 156.424 68.942 163.922 66.0316C165.722 65.3303 167.641 65.3161 169.254 65.9829C174.558 68.1759 189.453 70.3425 196.973 66.5302C197.099 66.4653 197.226 66.3984 197.346 66.3315C199.067 65.4033 200.143 64.4872 200.714 63.5751L200.716 63.5771ZM189.487 63.2082C183.224 66.3559 172.882 62.9975 170.981 62.3347C170.489 62.0408 177.291 58.0136 181.123 55.6929C182.791 54.6795 184.801 54.5133 186.368 55.2734C190.467 57.2556 195.034 60.4842 189.487 63.2082Z" fill="#ADC5B4"/>
<path d="M142.636 44.9023C142.594 44.8334 142.559 44.7584 142.535 44.6773C142.262 43.7652 142.308 42.7032 142.669 41.5155C142.853 40.9095 143.513 40.492 144.138 40.5832C144.766 40.6744 145.124 41.2399 144.94 41.8459C144.703 42.6221 144.663 43.2849 144.822 43.8139C144.99 44.3794 144.616 45.03 143.984 45.2671C143.444 45.4718 142.891 45.3056 142.636 44.9003V44.9023Z" fill="white"/>
<path d="M144.835 38.5503C144.618 38.2037 144.646 37.7254 144.948 37.3322C145.946 36.033 147.086 34.9143 148.001 34.3386L163.325 24.7053C163.9 24.3425 164.618 24.4499 164.928 24.9445C165.238 25.439 165.023 26.1322 164.446 26.495L149.122 36.1283C148.646 36.4262 147.756 37.2147 146.804 38.4551C146.399 38.984 145.655 39.1604 145.14 38.8503C145.009 38.7712 144.906 38.6679 144.833 38.5503H144.835Z" fill="white"/>
<path opacity="0.22" d="M200.716 63.5772C200.793 63.4556 200.862 63.3319 200.923 63.2123C200.977 63.0907 201.028 62.9691 201.068 62.8536C202.473 58.7635 194.155 55.0201 189.303 52.2697C188.775 51.9677 188.817 51.2279 189.37 50.8185C190.422 50.0301 191.159 48.4026 191.026 47.0994C191.007 46.8967 190.965 46.7062 190.9 46.5258C190.886 46.4812 190.87 46.4346 190.85 46.3941C190.829 46.3474 190.811 46.3049 190.791 46.2643C190.728 46.1407 190.659 46.011 190.582 45.8752C190.578 45.861 190.572 45.8509 190.564 45.8367C190.459 45.6401 190.344 45.4273 190.214 45.2003C189.989 44.799 189.732 44.3531 189.449 43.8646C189.392 43.7673 189.335 43.668 189.275 43.5667C189.163 43.3822 189.052 43.1897 188.939 42.9951C188.866 42.8776 188.791 42.7519 188.716 42.6262C188.651 42.5168 188.582 42.4074 188.518 42.2939C188.388 42.0729 188.248 41.8419 188.107 41.6088C188.074 41.5561 188.044 41.5034 188.009 41.4467H188.005C173.93 50.8672 152.857 66.8241 138.652 51.684C138.737 51.8339 138.804 51.9961 138.855 52.1643C138.903 52.3285 138.936 52.5028 138.942 52.6791C138.964 53.0318 138.903 53.3966 138.747 53.7472C138.25 54.8944 137.071 55.3808 135.292 56.3354C135.217 56.374 135.14 56.4125 135.063 56.4469C135.015 56.4692 134.96 56.4935 134.913 56.5097C134.853 56.5341 134.79 56.5604 134.725 56.5787C134.529 56.6476 134.328 56.6962 134.13 56.7266C134.067 56.7347 134 56.7449 133.936 56.7489C133.592 56.7834 133.251 56.7611 132.93 56.682C132.861 56.6658 132.794 56.6455 132.725 56.6253C132.725 56.6253 132.724 56.6239 132.723 56.6212C132.66 56.607 132.6 56.5807 132.543 56.5584C132.464 56.526 132.383 56.4915 132.312 56.4489C132.306 56.4489 132.3 56.4429 132.294 56.4429C133.197 58.8203 134.085 60.7721 134.341 61.1795C134.766 61.8584 135.749 63.6015 137.903 65.9668C137.879 65.8918 137.849 65.8147 137.816 65.7418C137.766 65.61 137.711 65.4803 137.654 65.3547C137.63 65.302 137.61 65.2472 137.59 65.1925C137.573 65.1398 137.557 65.081 137.545 65.0263C137.523 64.9128 137.511 64.7993 137.509 64.6858C137.509 64.5683 137.517 64.4548 137.535 64.3392C137.636 63.7575 138.005 63.1961 138.563 62.809C139.496 62.1685 140.658 61.4592 141.618 60.8795C141.792 60.7741 141.96 60.6748 142.118 60.5795C142.167 60.5491 142.215 60.5228 142.266 60.4964C142.363 60.4498 142.464 60.4073 142.565 60.3769C143.217 60.1762 143.899 60.3444 144.339 60.8025C144.347 60.8065 144.355 60.8146 144.357 60.8187C148.205 66.9558 156.424 68.9482 163.922 66.0377C165.722 65.3364 167.641 65.3222 169.254 65.989C174.558 68.182 189.453 70.3487 196.973 66.5363C197.099 66.4714 197.226 66.4045 197.346 66.3376C199.066 65.4094 200.145 64.4872 200.714 63.5812L200.716 63.5772ZM189.487 63.2083C183.224 66.3559 172.882 62.9975 170.981 62.3347C170.489 62.0409 177.291 58.0136 181.123 55.693C182.791 54.6796 184.801 54.5134 186.368 55.2734C190.467 57.2556 195.034 60.4843 189.487 63.2083Z" fill="#86A890"/>
<path opacity="0.22" d="M91.5872 56.303C105.83 77.1911 116.841 81.575 134.136 79.5442C134.118 79.5624 134.1 79.5806 134.082 79.5989C133.341 80.2961 132.513 80.9386 131.61 81.5061C131.537 81.6561 128.432 83.541 124.98 85.7441C122.922 87.0595 121.735 89.3112 122.005 91.4414C126.551 127.508 76.8562 66.218 91.5892 56.303H91.5872Z" fill="#86A890"/>
<path d="M170.469 31.8842C177.781 30.8607 178.825 27.9198 180.184 18.8013C181.131 27.4516 182.341 30.733 189.775 31.72C183.289 34.1866 181.009 35.0825 179.854 45.0806C178.256 34.9527 176.831 34.0589 170.469 31.8842Z" fill="white"/>
<path d="M108.205 81.8465C111.622 81.3094 112.11 79.7691 112.743 74.9919C113.186 79.5259 113.751 81.2446 117.225 81.7614C114.195 83.0545 113.13 83.5227 112.589 88.7619C111.842 83.4558 111.178 82.9856 108.205 81.8465Z" fill="white"/>
<path d="M274.726 162.754C270.147 162.813 260.847 171.781 274.315 173.03C287.781 174.278 307.915 173.372 316.067 173.297C329.372 173.178 332.664 172.543 332.484 166.621C332.379 163.194 330.652 160.995 323.627 160.184C316.32 159.341 319.935 150.451 311.032 150.832C303.449 151.157 302.821 162.74 295.843 159.992C288.866 157.243 290.418 164.955 285.36 166.437C279.801 168.066 279.303 162.695 274.726 162.754Z" fill="white"/>
<path d="M30.4039 85.6124C21.5738 86.2407 13.1364 85.4178 4.47231 83.3242C3.14435 83.0039 1.7334 82.5743 0.832574 81.3825C-0.531821 79.5787 -0.120883 76.5405 1.3508 74.8562C2.82249 73.172 5.03912 72.6673 7.08369 72.9024C8.39343 73.0524 9.73556 73.4659 11.0008 73.0382C12.5797 72.5031 13.6263 70.8067 14.685 69.3312C15.7438 67.8557 17.177 66.3964 18.8106 66.6275C20.0333 66.7998 20.9969 67.88 22.086 68.557C23.1751 69.2339 24.7561 69.3049 25.3795 68.0584C26.7156 65.3911 24.8411 58.0785 31.7197 58.0785C41.6491 58.0785 40.0255 65.4398 41.2219 67.0004C43.0337 69.3677 46.2584 68.8468 48.884 68.0462C51.5075 67.2457 54.6331 66.4856 56.6574 68.6016C58.4125 70.4379 58.5947 73.8043 60.4611 75.4825C62.449 77.2681 65.2709 76.3155 67.6799 75.5129C70.0868 74.7103 73.1921 74.4164 74.5889 76.8526C75.761 78.8956 74.8865 81.8628 73.2204 83.3606C71.5544 84.8584 69.356 85.2233 67.2628 85.3733C53.6614 86.34 41.315 84.8362 30.4059 85.6124H30.4039Z" fill="white"/>
</g>
<defs>
<clipPath id="clip0_487_10077">
<rect width="333" height="324.99" fill="white"/>
</clipPath>
</defs>
</svg>
