<svg width="134" height="134" viewBox="0 0 134 134" fill="none" xmlns="http://www.w3.org/2000/svg">
<path d="M67.0004 133.997C103.037 133.67 133.134 104.234 133.983 66.9995C134.829 29.8884 104.624 -0.329944 67.0004 0.00272058C30.7298 0.323535 0.873901 30.1118 0.0182514 66.9995C-0.857811 104.735 29.9217 134.334 67.0004 133.997ZM67.1255 2.26112C102.939 2.83841 131.98 31.3917 132.788 66.8903C133.613 103.124 103.66 131.756 67.1255 131.52C31.4068 131.289 2.3496 103.079 1.46333 66.8903C0.576209 30.6646 30.9518 1.67705 67.1255 2.26112Z" fill="#E8EEEA"/>
<path d="M67.0014 14.0064C37.593 14.0064 13.7522 37.7331 13.7522 67.0008C13.7522 96.2685 37.593 119.995 67.0014 119.995C96.4099 119.995 120.251 96.2685 120.251 67.0008C120.251 37.7331 96.4099 14.0064 67.0014 14.0064ZM90.9154 95.4238C83.5896 95.4238 77.2224 91.3361 73.9921 85.327C73.5243 85.7587 72.5002 86.0575 71.3129 86.0575C70.4555 86.0575 69.6824 85.9009 69.1431 85.652C69.9146 97.1633 71.1768 108.068 78.2261 111.843H56.9148C64.3945 103.791 64.6386 94.2065 65.0452 85.6597C64.5068 85.9051 63.7404 86.0575 62.8924 86.0575C61.5801 86.0575 60.4675 85.6927 60.0848 85.1873C56.8782 91.2726 50.4694 95.4238 43.0858 95.4238C32.4922 95.4238 23.9043 86.8761 23.9043 76.3332C23.9043 65.7904 32.4922 57.2435 43.0858 57.2435C47.4916 57.2435 51.5504 58.7215 54.7884 61.2067C55.6985 60.0132 56.7796 58.9568 57.9959 58.073C51.9765 54.8522 47.8846 48.5257 47.8846 41.2477C47.8846 30.7048 56.4725 22.158 67.0661 22.158C77.6596 22.158 86.2484 30.7048 86.2484 41.2477C86.2484 48.5257 82.1565 54.8522 76.1363 58.073C77.3313 58.9407 78.3962 59.9759 79.2952 61.1441C82.5196 58.6969 86.547 57.2435 90.9154 57.2435C101.51 57.2435 110.098 65.7904 110.098 76.3332C110.098 86.8761 101.51 95.4238 90.9154 95.4238Z" fill="#E8EEEA"/>
<path d="M58.6891 66.7164C58.6891 64.4445 60.5713 62.6017 62.895 62.6017C65.2187 62.6017 67.101 64.4445 67.101 66.7164C67.101 64.4445 68.9849 62.6017 71.3069 62.6017C73.6289 62.6017 75.5129 64.4445 75.5129 66.7164C75.5724 70.5509 74.1809 75.0847 67.1001 82.361C60.0193 75.0847 58.6295 70.5501 58.6891 66.7164Z" fill="#E8EEEA"/>
<path d="M92.3783 88.8966C87.6621 88.6376 84.1374 84.8894 82.7995 80.5072C82.4354 79.3137 82.415 77.8188 81.3561 76.9841C81.1231 76.8005 80.6263 76.6489 80.6791 76.3078C80.8381 75.7618 81.9498 76.031 82.1811 75.711C82.2254 68.538 89.0008 60.9434 96.4346 64.8965C96.939 65.0979 98.054 65.4484 98.5473 65.2545C98.8204 65.147 99.2227 64.4385 99.3834 64.4131C99.8112 64.3454 100.393 64.4546 100.447 64.9676C100.622 66.5971 100.293 68.494 100.407 70.1489C100.613 70.8616 101.491 71.2129 100.886 72.0357C97.9936 74.3355 98.5346 64.9955 92.0577 65.7294C89.6591 65.8911 88.9872 66.6817 88.385 68.9113C87.9147 70.6542 87.5336 73.7235 87.7769 75.5536C87.7046 76.3137 88.7482 75.59 89.0697 76.2604C89.5579 77.2787 87.1789 75.7009 87.8585 79.6827C88.1145 82.289 88.8851 86.259 91.9097 87.0225C94.6918 87.7242 98.2241 86.4232 99.0415 83.4445C99.2695 82.6141 99.2542 80.7103 100.146 80.348C100.422 80.2355 100.871 80.5944 101.007 80.8348C101.864 82.3423 100.329 85.1162 99.2924 86.2725C97.6254 88.1305 94.8347 89.0312 92.3783 88.8966Z" fill="#E8EEEA"/>
<path d="M68.4797 50.3532L68.3785 50.2152C68.2381 48.7534 68.5001 48.9108 69.7989 48.7584C71.05 48.4986 70.1978 46.7929 69.9818 46.0438C69.5947 44.7038 69.2435 43.3071 68.791 41.9782C68.6634 41.2688 68.3963 41.7936 68.0059 42.0002C66.372 42.7933 64.153 41.9976 62.7172 41.1436C61.9356 42.7722 61.5664 44.8384 60.9685 46.6126C60.1971 48.6018 60.4497 48.4681 62.3336 49.0733C62.4638 49.2765 62.565 50.3676 62.172 50.3862C60.3238 50.3862 58.1209 50.3862 56.2692 50.3862C55.8082 50.4226 55.9205 49.2172 56.0864 49.0632C56.6588 48.7314 57.9925 48.9624 58.1634 48.0347C59.122 45.4521 59.7335 42.5826 60.647 39.967C60.7465 38.9351 60.1146 38.9613 59.6417 38.423C59.2198 37.9422 60.3944 37.7238 60.6836 37.7255C60.8792 37.7263 61.3079 37.899 61.4253 37.6645C62.1048 34.9863 62.9537 32.2835 63.76 29.6163C64.1189 28.4473 65.0775 27.0083 63.3934 26.4928C63.1995 26.4098 62.8431 26.4691 62.8916 26.1119C62.946 25.7123 64.3163 25.7115 64.6114 25.7817C64.9984 25.874 65.2102 26.1406 65.4705 26.2532C65.9408 26.3556 66.4537 25.6057 66.8118 25.4567C67.4522 25.8613 67.7882 26.6121 68.7195 25.8698C69.474 25.3805 71.9159 26.1389 69.9605 26.5639C68.8743 27.0227 69.3864 28.0046 69.6118 28.7986C70.4929 31.7612 71.3588 34.8466 72.348 37.7483C72.5725 37.9075 72.7613 37.6984 73.0105 37.7052C73.2759 37.7119 73.8875 37.8745 73.953 38.1775C74.0491 38.6219 73.6314 38.5178 73.344 38.7455C72.1728 39.6639 74.465 44.3475 74.6929 45.8864C74.829 46.3206 75.4499 48.4918 75.6745 48.6662C76.0495 48.9574 76.6398 48.6831 77.0149 48.8575C77.4342 49.0522 77.7881 50.503 76.9443 50.4065C74.1554 50.3549 71.1776 50.5098 68.4797 50.3532ZM65.9629 40.9523C68.3776 41.5143 68.4652 39.1696 66.4112 38.6033C66.2793 37.513 67.4854 38.4594 67.5126 37.5782C66.9895 35.9183 66.469 34.2905 65.9561 32.6568C65.8396 32.3986 65.6482 30.8555 65.4228 31.6986C64.602 34.1297 63.8212 36.7834 63.2097 39.2407C63.9293 40.0338 64.8972 40.7068 65.9629 40.9523Z" fill="#E8EEEA"/>
<path d="M34.0394 88.8119C32.966 86.6323 36.0152 87.9688 36.0152 86.5849C36.0152 83.4834 36.4839 77.476 34.5871 76.7302C33.8072 76.4238 36.0135 76.4441 36.0135 75.954C36.0135 74.7884 36.7492 64.9075 35.2455 64.767C33.1055 64.2151 36.2006 63.4939 37.4075 64.5672C38.3797 63.3576 38.6766 63.7622 39.71 64.6942C42.5142 63.6132 47.0145 63.7097 49.7379 65.5779C53.8724 68.3078 52.6944 75.1515 48.3294 76.9774C45.8356 78.0786 43.3631 77.2931 40.8089 77.5293C41.0241 77.9127 40.3334 87.2824 41.3294 87.1638C41.6679 87.29 42.7047 87.3568 42.8851 87.5439C43.1062 87.775 43.1275 88.889 42.6197 88.889C39.7925 88.7908 36.7739 89.0278 34.0394 88.8119ZM40.8582 75.8262C49.4164 78.4502 49.242 63.4287 41.3456 65.4763C40.6371 65.7083 40.8523 66.3727 40.8565 66.9136C41.0036 69.8357 40.6447 72.9431 40.8582 75.8262Z" fill="#E8EEEA"/>
<path d="M6.08959 52.615C4.43528 55.1798 4.03382 58.4489 3.96322 61.5021C3.94706 62.203 3.87477 63.3449 3.96408 64.0034C4.01511 64.3784 4.17926 64.7831 4.2405 65.1504C4.50247 66.7282 4.22009 68.0437 5.43552 69.3591C5.45168 69.376 5.42701 69.4471 5.49676 69.47L5.53333 69.4294C5.42021 69.1229 5.28838 68.8554 5.23139 68.5321C5.15399 68.0936 5.19737 67.5722 5.14293 67.1202C5.0868 66.6563 4.95071 66.2001 4.91413 65.7328C4.87161 65.1877 4.94901 64.6078 4.90053 64.0568C4.87841 63.8096 4.78996 63.5243 4.76869 63.2755C4.76274 63.2069 4.73552 62.7278 4.74998 62.7033C4.79931 62.6212 4.89712 62.6 4.95751 62.6762C4.98048 62.705 5.0145 63.3356 5.07234 63.4016C5.31814 63.6818 5.75022 63.3043 5.67793 63.1807C5.60393 63.0537 5.41596 63.0038 5.31049 62.8793C5.15569 62.6956 5.19652 62.3994 5.19141 62.1785L5.3292 60.4246C5.24159 60.3052 5.08509 60.4753 5.05447 60.5549C5.04852 60.5701 5.04597 60.7504 5.04002 60.7767C4.97027 61.0696 4.90138 61.3616 4.83418 61.6545C4.77209 61.6401 4.74488 61.6477 4.70745 61.5791C4.68534 61.5385 4.76784 60.7674 4.7789 60.6548C4.89967 59.3851 5.14208 57.6794 5.77234 56.5943C5.89141 56.3886 6.10405 56.1626 6.22227 55.9492C6.4902 55.4676 6.68922 54.5297 7.01668 54.142C7.04475 54.109 7.16893 53.977 7.20806 53.9973L7.45387 54.2292C7.49384 54.2673 7.32118 54.4721 7.31182 54.4891L7.31948 54.5331C7.29226 54.5754 6.77003 55.1688 7.1902 54.9402C7.60526 54.7151 7.95909 54.2284 8.19129 53.8347C8.27549 53.6917 8.25593 53.5546 8.42264 53.4276C8.46176 53.398 9.25957 53.0941 9.33782 53.0772C9.70101 52.9967 10.0991 53.1593 10.424 53.2668C10.6451 53.3396 11.0806 53.4259 11.2218 53.6062C11.3324 53.7476 11.1639 54.9453 11.1588 55.1984C11.1444 55.8875 11.2932 56.4749 11.1673 57.1741C11.1486 57.2799 11.0534 57.45 11.0364 57.5575C10.9938 57.8276 11.1801 58.4523 11.2107 58.7612C11.2847 59.5121 11.158 60.3687 11.1138 61.0924C10.9955 63.0444 10.7982 65.3883 11.0381 67.3496C11.0559 67.4977 11.2082 68.439 11.2626 68.5033C11.3187 68.5702 11.4038 68.4542 11.4327 68.4009C11.4565 68.3569 11.4591 67.7279 11.482 67.606C11.5526 67.2268 11.7398 66.8315 11.8308 66.4591C12.0221 65.6778 12.0587 64.8465 12.2637 64.0661C12.4134 63.4964 12.6379 62.9902 12.8591 62.4536C12.905 62.341 12.9526 62.4502 12.9169 62.2614L12.9484 62.2216C12.9348 62.1895 12.5597 61.9744 12.4619 61.7383C12.3972 61.5834 12.4245 60.7505 12.4304 60.5354C12.461 59.4985 12.558 58.2288 12.7145 57.2063C12.8931 56.0398 13.4128 54.9775 13.5208 53.8136C13.6008 52.9493 13.0539 52.2789 12.5129 51.7067C12.4432 51.6331 12.2543 51.4443 12.1769 51.3994C12.1302 51.3724 11.2422 51.4418 11.0976 51.4384C10.5635 51.4265 9.97999 51.3834 9.43649 51.3233C8.64973 51.2369 8.08242 50.944 7.30077 51.347C6.69603 51.6585 6.43321 52.0825 6.08959 52.615Z" fill="#E8EEEA"/>
<path d="M9.0614 69.5089C9.01292 69.5098 8.88703 69.6486 8.86152 69.6604C8.6038 69.7849 8.34268 69.79 8.07306 69.7079C8.04925 69.7002 7.91911 69.6054 7.89275 69.5987C7.84512 69.586 7.61717 69.6842 7.57804 69.7138C7.45982 69.8035 7.41984 69.834 7.5823 69.8822C7.64779 69.9017 8.35544 69.8323 8.50429 69.8314C8.75435 69.8297 9.00951 69.9762 9.19323 69.7222C9.25022 69.6435 9.13965 69.5072 9.0614 69.5089Z" fill="#E8EEEA"/>
<path d="M29.6318 17.0148C26.7077 17.9222 24.2887 20.1679 22.2636 22.4627C21.7992 22.9892 21.0056 23.8179 20.6492 24.38C20.446 24.6999 20.3107 25.1156 20.1202 25.4355C19.3011 26.8119 18.2362 27.6389 18.317 29.4241C18.3179 29.4478 18.2532 29.4859 18.2924 29.5485L18.346 29.5409C18.4574 29.2337 18.5297 28.9442 18.6947 28.6606C18.9184 28.2754 19.2884 27.9038 19.5393 27.5221C19.7961 27.131 19.9867 26.6942 20.2605 26.3133C20.5803 25.8681 21.0141 25.4736 21.3322 25.0207C21.4751 24.8176 21.5908 24.5416 21.7362 24.3376C21.7762 24.2809 22.0645 23.8966 22.0918 23.8873C22.1828 23.856 22.2712 23.9017 22.2678 23.9999C22.2661 24.0363 21.8851 24.5416 21.8868 24.6288C21.8944 25.0013 22.4686 24.9877 22.4932 24.8472C22.5187 24.7025 22.4065 24.5442 22.4065 24.3808C22.4065 24.1413 22.6293 23.9406 22.7679 23.7671L24.0055 22.5118C24.0148 22.3645 23.786 22.3941 23.7112 22.4356C23.6967 22.4432 23.5785 22.5804 23.5573 22.5964C23.3148 22.7759 23.0733 22.9553 22.8326 23.1365C22.7943 23.0857 22.7688 23.0739 22.7841 22.9968C22.7935 22.9511 23.3548 22.4136 23.4356 22.334C24.3483 21.4393 25.636 20.2873 26.8191 19.8589C27.0436 19.7777 27.3515 19.7404 27.5803 19.6524C28.0966 19.4543 28.8545 18.8635 29.3554 18.7763C29.398 18.7687 29.5783 18.7475 29.5953 18.7882L29.6336 19.1225C29.6395 19.1775 29.375 19.2241 29.3571 19.23L29.3342 19.2689C29.2857 19.2842 28.5023 19.4044 28.9718 19.4983C29.4354 19.5915 30.0205 19.445 30.4535 19.2918C30.6108 19.2359 30.6848 19.1183 30.8932 19.1276C30.9425 19.1301 31.7497 19.4078 31.8203 19.4442C32.1512 19.6152 32.3502 19.9935 32.5305 20.2839C32.653 20.4811 32.9303 20.8256 32.9226 21.0542C32.9158 21.2336 32.0134 22.0428 31.8458 22.2341C31.3899 22.7522 31.1246 23.2982 30.5768 23.7527C30.4935 23.8213 30.3114 23.8915 30.2289 23.9626C30.0214 24.1421 29.7611 24.7406 29.5851 24.9953C29.1564 25.6175 28.5066 26.1931 28.0056 26.7196C26.6541 28.1392 24.9887 29.8084 23.9068 31.4641C23.8252 31.5894 23.3336 32.4079 23.3336 32.4909C23.3336 32.5789 23.473 32.5434 23.53 32.5205C23.5768 32.5019 23.9851 32.0219 24.0812 31.9432C24.3806 31.6977 24.7795 31.5149 25.0891 31.288C25.7406 30.8115 26.3054 30.1986 26.9671 29.7314C27.4494 29.3911 27.9486 29.1465 28.4641 28.8764C28.5721 28.8197 28.538 28.934 28.6325 28.7664L28.6826 28.7562C28.6928 28.7232 28.5449 28.3186 28.6223 28.0748C28.6733 27.9148 29.2312 27.2944 29.375 27.1335C30.0682 26.359 30.963 25.4482 31.7429 24.7651C32.6334 23.9864 33.717 23.5047 34.5514 22.6819C35.1706 22.0708 35.1851 21.2074 35.14 20.4235C35.134 20.3228 35.1111 20.057 35.0804 19.9732C35.0617 19.9224 34.3371 19.4078 34.2291 19.313C33.8276 18.9617 33.4083 18.5554 33.0306 18.1626C32.4837 17.5929 32.2379 17.0063 31.3789 16.815C30.7137 16.6669 30.2391 16.8269 29.6318 17.0148Z" fill="#E8EEEA"/>
<path d="M20.9971 31.8569C20.9588 31.8264 20.7734 31.8526 20.7462 31.8459C20.4689 31.7756 20.2648 31.6131 20.1117 31.3778C20.0981 31.3575 20.0598 31.2009 20.0445 31.178C20.0164 31.1374 19.7783 31.0671 19.7289 31.0654C19.5801 31.0586 19.5308 31.0561 19.6235 31.1975C19.6609 31.2542 20.2478 31.6537 20.3626 31.7485C20.5557 31.9068 20.656 32.1828 20.9614 32.1057C21.0558 32.082 21.0592 31.906 20.9971 31.8569Z" fill="#E8EEEA"/>
<path d="M70.6596 4.80354C67.8341 3.62779 64.5297 3.80131 61.4967 4.26264C60.801 4.36845 59.6578 4.49542 59.0216 4.69858C58.6593 4.8137 58.2876 5.04563 57.9346 5.16922C56.4189 5.69996 55.0683 5.65171 53.9779 7.07125C53.9634 7.08987 53.8894 7.07802 53.8784 7.15081L53.9251 7.17959C54.2092 7.01622 54.4508 6.84016 54.7604 6.72758C55.1805 6.57521 55.7045 6.52781 56.1425 6.39576C56.5916 6.26032 57.0203 6.04786 57.4762 5.93104C58.0086 5.79476 58.5955 5.77021 59.1322 5.62631C59.3729 5.56198 59.64 5.42485 59.8824 5.36137C59.9496 5.34359 60.4182 5.23355 60.4454 5.24371C60.5356 5.27757 60.5739 5.36983 60.5075 5.44263C60.4828 5.46972 59.8645 5.61277 59.8092 5.68049C59.5745 5.96998 60.0236 6.32804 60.1333 6.23577C60.2455 6.14097 60.2626 5.94882 60.368 5.82354C60.5228 5.63986 60.8239 5.62885 61.0417 5.58484L62.8006 5.41469C62.9035 5.30804 62.7079 5.18361 62.6245 5.16837C62.6084 5.16498 62.4297 5.19461 62.4025 5.19292C62.1006 5.17514 61.7995 5.15821 61.4984 5.14298C61.5018 5.07949 61.4899 5.0541 61.5511 5.005C61.5877 4.97622 62.3651 4.92289 62.4782 4.91443C63.7557 4.81285 65.4858 4.7536 66.6689 5.18276C66.8934 5.26402 67.1537 5.43247 67.385 5.51119C67.9081 5.6898 68.8709 5.72196 69.3107 5.97591C69.3481 5.99707 69.5003 6.09611 69.4867 6.13843L69.3005 6.41946C69.2698 6.46602 69.0368 6.33227 69.0189 6.32465L68.9764 6.33989C68.9296 6.32042 68.2517 5.91158 68.5511 6.28402C68.8463 6.65139 69.3889 6.9138 69.8193 7.07379C69.9758 7.13219 70.1085 7.08902 70.2624 7.22954C70.2981 7.26255 70.7379 7.99136 70.7685 8.06501C70.9114 8.40698 70.8195 8.82514 70.7702 9.16204C70.7362 9.39143 70.7268 9.83329 70.5729 10.0026C70.4521 10.1355 69.2375 10.1787 68.9858 10.2176C68.3019 10.3234 67.7457 10.5714 67.0329 10.5689C66.9249 10.5689 66.7403 10.5054 66.6306 10.5071C66.3559 10.5122 65.7698 10.8034 65.4705 10.8863C64.7398 11.0895 63.8714 11.114 63.1468 11.1961C61.1948 11.4187 58.8413 11.6329 56.942 12.2085C56.7983 12.2517 55.8933 12.5649 55.8397 12.6284C55.7827 12.6952 55.9129 12.7587 55.9707 12.7765C56.0183 12.7917 56.6409 12.6851 56.766 12.6868C57.1538 12.6901 57.5774 12.8053 57.9618 12.8298C58.7682 12.8814 59.5974 12.7731 60.4054 12.8383C60.9949 12.8857 61.535 13.0186 62.1048 13.1413C62.2239 13.1667 62.1244 13.2327 62.3047 13.165L62.3498 13.1896C62.3787 13.1709 62.5267 12.7663 62.7436 12.6292C62.8856 12.5395 63.7141 12.421 63.9284 12.3896C64.9593 12.2398 66.2334 12.1137 67.2719 12.09C68.4567 12.0629 69.5982 12.3871 70.7685 12.2906C71.6378 12.2187 72.2059 11.5669 72.678 10.9371C72.7384 10.8558 72.8932 10.6383 72.9238 10.5545C72.9425 10.5037 72.7197 9.64622 72.6984 9.50317C72.6176 8.97751 72.5589 8.39767 72.524 7.85508C72.473 7.06871 72.6635 6.46178 72.1294 5.76598C71.716 5.22762 71.2465 5.04817 70.6596 4.80354Z" fill="#E8EEEA"/>
<path d="M54.4584 10.6493C54.4491 10.6019 54.29 10.502 54.2739 10.48C54.1063 10.2489 54.0561 9.99412 54.0901 9.71563C54.0935 9.69108 54.165 9.54718 54.1675 9.5201C54.1718 9.471 54.0349 9.26531 53.9983 9.23145C53.8886 9.13157 53.852 9.09771 53.8324 9.26531C53.8248 9.33303 54.0153 10.0144 54.0425 10.16C54.0876 10.4047 53.9872 10.6806 54.2705 10.8169C54.3581 10.8592 54.4737 10.7263 54.4584 10.6493Z" fill="#E8EEEA"/>
<path d="M109.976 21.6949C108.571 18.9871 105.928 17.0063 103.306 15.4192C102.705 15.0552 101.747 14.4212 101.129 14.1698C100.777 14.0267 100.343 13.9658 99.9927 13.8346C98.4889 13.2708 97.4853 12.3702 95.7332 12.7604C95.7102 12.7655 95.6609 12.7088 95.6056 12.7579L95.6226 12.8095C95.9458 12.8654 96.2444 12.8857 96.5548 12.9983C96.975 13.1506 97.4071 13.4494 97.8281 13.6289C98.2593 13.8126 98.7254 13.9235 99.1498 14.1258C99.6457 14.3619 100.112 14.7183 100.614 14.9519C100.84 15.0569 101.133 15.1229 101.36 15.2287C101.423 15.2583 101.854 15.4742 101.867 15.4987C101.914 15.5825 101.883 15.6774 101.787 15.6909C101.75 15.696 101.183 15.4099 101.098 15.4268C100.73 15.4987 100.843 16.06 100.987 16.0591C101.134 16.0591 101.272 15.922 101.433 15.8932C101.67 15.8509 101.907 16.0354 102.103 16.1412L103.56 17.1367C103.708 17.1206 103.638 16.9005 103.584 16.8353C103.574 16.8226 103.418 16.7304 103.398 16.7126C103.179 16.5061 102.959 16.3004 102.737 16.0964C102.781 16.0498 102.788 16.0227 102.867 16.0244C102.913 16.0253 103.543 16.4824 103.636 16.5475C104.68 17.2865 106.043 18.3488 106.673 19.434C106.792 19.6397 106.883 19.9351 107.009 20.1442C107.295 20.6157 108.011 21.2565 108.184 21.7322C108.199 21.7728 108.252 21.9463 108.214 21.9701L107.89 22.0657C107.836 22.0818 107.745 21.8295 107.735 21.8135L107.693 21.7974C107.67 21.7525 107.415 21.0059 107.403 21.4825C107.392 21.9523 107.637 22.5008 107.865 22.8986C107.947 23.0434 108.076 23.095 108.103 23.3016C108.109 23.3498 107.974 24.1895 107.95 24.2657C107.839 24.6195 107.499 24.8802 107.243 25.1071C107.068 25.2611 106.776 25.593 106.549 25.6251C106.37 25.6497 105.412 24.9056 105.195 24.7744C104.603 24.4181 104.017 24.2521 103.471 23.7942C103.389 23.7248 103.289 23.558 103.204 23.4895C102.99 23.3176 102.353 23.1653 102.07 23.0375C101.379 22.726 100.698 22.1884 100.09 21.7881C98.4507 20.7105 96.5097 19.368 94.6828 18.5943C94.545 18.5359 93.6493 18.1965 93.5668 18.2109C93.4801 18.2261 93.5388 18.3573 93.5711 18.4089C93.5983 18.4513 94.1435 18.7678 94.2379 18.8483C94.5331 19.0988 94.7831 19.4577 95.0612 19.7227C95.6456 20.2779 96.3507 20.7257 96.9273 21.2929C97.3484 21.7059 97.6758 22.1529 98.0331 22.6117C98.1079 22.7073 97.9888 22.6938 98.1709 22.7581L98.1896 22.8055C98.2244 22.8098 98.5987 22.5947 98.853 22.6278C99.0205 22.6498 99.7316 23.0891 99.9153 23.2025C100.802 23.7476 101.859 24.4663 102.67 25.1122C103.596 25.8494 104.26 26.828 105.219 27.5035C105.931 28.0046 106.788 27.8683 107.557 27.688C107.655 27.6651 107.915 27.5966 107.992 27.5517C108.039 27.5246 108.422 26.7255 108.498 26.602C108.775 26.1474 109.105 25.6658 109.429 25.2281C109.897 24.5933 110.436 24.2505 110.476 23.3752C110.507 22.698 110.268 22.257 109.976 21.6949Z" fill="#E8EEEA"/>
<path d="M93.7885 15.8094C93.8123 15.7671 93.7545 15.5893 93.7562 15.5614C93.7775 15.277 93.9033 15.0493 94.1092 14.858C94.127 14.841 94.275 14.7767 94.2946 14.7572C94.3295 14.7225 94.3584 14.4771 94.3516 14.428C94.332 14.2815 94.3261 14.2316 94.2027 14.3475C94.1526 14.3941 93.8591 15.0383 93.786 15.1678C93.6626 15.3845 93.4075 15.5309 93.5359 15.8162C93.5759 15.9051 93.7503 15.878 93.7885 15.8094Z" fill="#E8EEEA"/>
<path d="M129.183 59.7855C129.856 56.8118 129.11 53.6037 128.127 50.7113C127.901 50.0476 127.576 48.9497 127.266 48.3614C127.089 48.0262 126.796 47.702 126.612 47.3778C125.824 45.9837 125.636 44.6522 124.042 43.8303C124.021 43.8193 124.02 43.7448 123.947 43.7465L123.927 43.7973C124.138 44.047 124.354 44.2535 124.519 44.5379C124.742 44.9231 124.88 45.4284 125.087 45.8347C125.299 46.252 125.584 46.6346 125.778 47.0613C126.006 47.5598 126.132 48.1304 126.367 48.6315C126.472 48.8558 126.654 49.0937 126.76 49.3205C126.789 49.3831 126.979 49.8233 126.974 49.8521C126.956 49.946 126.871 49.9994 126.789 49.9477C126.757 49.9283 126.509 49.3467 126.432 49.3053C126.104 49.1258 125.828 49.6278 125.938 49.7192C126.051 49.8131 126.245 49.7962 126.387 49.8775C126.597 49.9968 126.66 50.2906 126.74 50.4963L127.214 52.1909C127.337 52.273 127.427 52.0605 127.428 51.975C127.428 51.959 127.368 51.788 127.365 51.7617C127.33 51.4629 127.294 51.165 127.257 50.867C127.32 50.8594 127.343 50.8433 127.402 50.8949C127.437 50.9254 127.624 51.6779 127.653 51.788C127.975 53.0221 128.334 54.7075 128.115 55.9425C128.073 56.1761 127.952 56.4605 127.914 56.7018C127.828 57.2452 127.963 58.1949 127.789 58.6698C127.775 58.7104 127.702 58.8764 127.659 58.8713L127.349 58.7375C127.298 58.7155 127.389 58.4641 127.393 58.4455L127.371 58.4066C127.382 58.3575 127.668 57.6219 127.352 57.9799C127.04 58.3329 126.874 58.9102 126.791 59.3597C126.76 59.5231 126.826 59.6458 126.713 59.821C126.687 59.8625 126.041 60.4195 125.974 60.4618C125.66 60.6616 125.231 60.6438 124.889 60.6539C124.656 60.6607 124.218 60.7276 124.022 60.6065C123.869 60.5117 123.616 59.3284 123.534 59.0888C123.311 58.437 122.968 57.9351 122.847 57.2359C122.829 57.1301 122.859 56.9379 122.839 56.8313C122.786 56.5629 122.397 56.039 122.262 55.7596C121.935 55.0791 121.76 54.2317 121.552 53.5359C120.992 51.6618 120.372 49.3916 119.472 47.6309C119.404 47.498 118.938 46.6651 118.865 46.6228C118.789 46.5788 118.75 46.7167 118.741 46.7768C118.734 46.8268 118.948 47.4185 118.968 47.5404C119.032 47.9213 118.992 48.3564 119.034 48.7373C119.124 49.5372 119.374 50.3303 119.45 51.1336C119.506 51.7194 119.468 52.2713 119.445 52.8511C119.44 52.9722 119.358 52.8859 119.456 53.0518L119.44 53.1C119.464 53.1254 119.89 53.1999 120.063 53.3887C120.177 53.5122 120.438 54.3037 120.505 54.5085C120.832 55.493 121.178 56.7195 121.382 57.7336C121.615 58.8899 121.492 60.0657 121.79 61.1957C122.012 62.0354 122.756 62.479 123.462 62.8319C123.553 62.8776 123.795 62.9911 123.883 63.0063C123.937 63.0156 124.748 62.6491 124.884 62.6025C125.391 62.4315 125.954 62.2741 126.485 62.1454C127.254 61.9592 127.888 62.0405 128.484 61.3963C128.945 60.8977 129.044 60.4034 129.183 59.7855Z" fill="#E8EEEA"/>
<path d="M120.585 44.9222C120.631 44.9044 120.701 44.7318 120.72 44.7114C120.92 44.5074 121.163 44.4135 121.445 44.3983C121.47 44.3966 121.624 44.4423 121.652 44.4397C121.702 44.4355 121.882 44.2654 121.908 44.2239C121.988 44.0994 122.016 44.0571 121.846 44.0673C121.778 44.0715 121.137 44.3771 120.997 44.4287C120.764 44.5159 120.473 44.4643 120.388 44.7656C120.361 44.8596 120.512 44.951 120.585 44.9222Z" fill="#E8EEEA"/>
<path d="M119.296 101.252C121.732 99.4039 123.233 96.47 124.348 93.6242C124.604 92.9715 125.065 91.9227 125.206 91.2735C125.287 90.9036 125.271 90.4677 125.34 90.1011C125.636 88.5292 126.353 87.389 125.664 85.7392C125.654 85.7172 125.702 85.6597 125.644 85.614L125.596 85.6394C125.596 85.9661 125.629 86.2624 125.572 86.5857C125.494 87.0242 125.273 87.4991 125.169 87.9426C125.062 88.3972 125.033 88.8729 124.907 89.3241C124.759 89.8514 124.488 90.3695 124.344 90.9036C124.28 91.1431 124.265 91.4419 124.2 91.6832C124.182 91.7501 124.043 92.2089 124.02 92.2275C123.945 92.2884 123.846 92.2749 123.816 92.1818C123.805 92.147 123.99 91.5427 123.958 91.4614C123.823 91.1144 123.288 91.3226 123.313 91.4622C123.338 91.607 123.498 91.7179 123.554 91.8702C123.637 92.0954 123.496 92.3604 123.425 92.5694L122.693 94.1701C122.735 94.3123 122.94 94.2057 122.996 94.1413C123.007 94.1287 123.071 93.9602 123.086 93.9382C123.252 93.6868 123.417 93.4362 123.581 93.184C123.634 93.2187 123.662 93.2212 123.674 93.2983C123.681 93.344 123.338 94.0406 123.29 94.143C122.739 95.2951 121.925 96.8154 120.961 97.6212C120.778 97.7736 120.502 97.9141 120.317 98.0741C119.9 98.4355 119.391 99.249 118.95 99.5021C118.913 99.5232 118.75 99.6054 118.721 99.5723L118.569 99.271C118.545 99.221 118.778 99.0873 118.792 99.0754L118.801 99.0314C118.84 99.001 119.535 98.6209 119.062 98.6928C118.595 98.7631 118.095 99.1 117.741 99.3912C117.612 99.497 117.583 99.6324 117.384 99.6951C117.337 99.7095 116.483 99.7239 116.404 99.7137C116.035 99.6654 115.716 99.3776 115.449 99.166C115.266 99.0221 114.886 98.7936 114.816 98.5752C114.76 98.405 115.33 97.3368 115.422 97.1006C115.672 96.4582 115.734 95.8546 116.093 95.2418C116.148 95.1487 116.295 95.0208 116.348 94.926C116.482 94.6865 116.521 94.0364 116.598 93.7359C116.787 93.0054 117.201 92.2436 117.491 91.5782C118.272 89.7845 119.264 87.6489 119.712 85.724C119.746 85.5784 119.927 84.6422 119.898 84.5635C119.868 84.4814 119.748 84.5618 119.703 84.6024C119.666 84.6363 119.447 85.2254 119.384 85.3321C119.188 85.6648 118.875 85.972 118.662 86.2911C118.214 86.9607 117.893 87.7285 117.432 88.3929C117.096 88.8771 116.711 89.2767 116.319 89.7058C116.237 89.7955 116.229 89.677 116.198 89.8667L116.154 89.8929C116.156 89.9276 116.434 90.2569 116.445 90.5125C116.452 90.6801 116.142 91.4538 116.062 91.6536C115.676 92.6168 115.149 93.7782 114.651 94.6856C114.082 95.7209 113.229 96.5419 112.728 97.5992C112.355 98.3839 112.639 99.1999 112.95 99.9219C112.99 100.015 113.104 100.257 113.161 100.325C113.196 100.366 114.054 100.603 114.189 100.656C114.687 100.849 115.221 101.088 115.71 101.33C116.42 101.679 116.853 102.146 117.725 102.034C118.401 101.947 118.789 101.635 119.296 101.252Z" fill="#E8EEEA"/>
<path d="M122.309 84.3654C122.355 84.3806 122.521 84.2935 122.549 84.2909C122.834 84.2621 123.081 84.3459 123.306 84.5144C123.325 84.5296 123.415 84.6625 123.438 84.6786C123.478 84.7074 123.726 84.6922 123.773 84.6769C123.915 84.6329 123.962 84.6177 123.826 84.5178C123.771 84.4771 123.083 84.3011 122.943 84.252C122.707 84.169 122.517 83.9439 122.257 84.1199C122.176 84.175 122.234 84.3409 122.309 84.3654Z" fill="#E8EEEA"/>
<path d="M84.9386 126.693C87.998 126.836 91.043 125.548 93.735 124.081C94.3525 123.745 95.3833 123.236 95.9115 122.829C96.2126 122.597 96.4822 122.254 96.7714 122.017C98.014 121.003 99.2992 120.589 99.8359 118.883C99.8427 118.861 99.9167 118.847 99.9023 118.775L99.8487 118.764C99.6386 119.014 99.471 119.261 99.2184 119.472C98.8756 119.758 98.4002 119.981 98.0336 120.254C97.6577 120.534 97.3285 120.88 96.9407 121.145C96.4873 121.454 95.9438 121.677 95.4896 121.995C95.2855 122.137 95.0814 122.356 94.8755 122.499C94.8185 122.539 94.4154 122.801 94.3873 122.801C94.2912 122.8 94.2232 122.726 94.2606 122.636C94.2742 122.602 94.8066 122.257 94.8347 122.175C94.9555 121.823 94.4111 121.639 94.3397 121.764C94.2665 121.89 94.3167 122.078 94.2614 122.231C94.1798 122.456 93.9 122.569 93.7111 122.684L92.1164 123.443C92.0568 123.578 92.2822 123.628 92.3664 123.615C92.3826 123.612 92.5408 123.524 92.5663 123.517C92.8563 123.431 93.1447 123.344 93.433 123.256C93.4517 123.317 93.4713 123.336 93.4305 123.403C93.4066 123.443 92.6939 123.757 92.5901 123.804C91.4249 124.335 89.819 124.978 88.5594 124.978C88.3212 124.978 88.0184 124.909 87.7735 124.913C87.2206 124.923 86.3046 125.221 85.8045 125.132C85.7619 125.125 85.585 125.083 85.5825 125.039L85.6616 124.712C85.6743 124.658 85.9397 124.704 85.9584 124.705L85.9933 124.676C86.0443 124.679 86.8217 124.832 86.4126 124.584C86.0094 124.339 85.409 124.278 84.9497 124.273C84.783 124.272 84.6732 124.358 84.4802 124.278C84.4351 124.259 83.7717 123.723 83.7172 123.665C83.4655 123.391 83.4076 122.968 83.3387 122.634C83.2919 122.407 83.1491 121.989 83.235 121.776C83.3022 121.61 84.4291 121.157 84.652 121.034C85.2584 120.702 85.6956 120.28 86.3667 120.039C86.4679 120.003 86.6635 119.999 86.7656 119.961C87.0224 119.862 87.4724 119.389 87.7258 119.209C88.3425 118.77 89.1505 118.45 89.8029 118.126C91.5601 117.253 93.6992 116.25 95.2855 115.063C95.4054 114.973 96.1488 114.371 96.1769 114.293C96.2075 114.21 96.0637 114.195 96.0025 114.198C95.9523 114.199 95.4037 114.512 95.2863 114.552C94.9206 114.681 94.4834 114.717 94.1134 114.825C93.3377 115.051 92.5961 115.434 91.8144 115.649C91.2446 115.804 90.6917 115.864 90.1133 115.942C89.9925 115.958 90.064 115.864 89.9168 115.988L89.8667 115.98C89.8454 116.008 89.8463 116.438 89.6898 116.641C89.5868 116.774 88.8494 117.167 88.6589 117.269C87.7411 117.761 86.5878 118.312 85.6199 118.688C84.5159 119.117 83.3319 119.2 82.2645 119.69C81.4726 120.053 81.1622 120.859 80.9351 121.612C80.9062 121.709 80.8356 121.967 80.8356 122.056C80.8356 122.109 81.3391 122.84 81.4088 122.966C81.6657 123.433 81.92 123.958 82.1395 124.455C82.4576 125.177 82.4873 125.812 83.2281 126.284C83.8023 126.649 84.3032 126.663 84.9386 126.693Z" fill="#E8EEEA"/>
<path d="M98.1544 115.684C98.1799 115.726 98.3636 115.765 98.3866 115.78C98.623 115.94 98.7583 116.162 98.8221 116.435C98.828 116.459 98.8102 116.619 98.817 116.645C98.8297 116.692 99.0287 116.84 99.0747 116.858C99.2116 116.915 99.2575 116.934 99.2184 116.77C99.2023 116.704 98.7889 116.129 98.7132 116.001C98.5865 115.787 98.5865 115.493 98.2735 115.462C98.1765 115.451 98.1136 115.616 98.1544 115.684Z" fill="#E8EEEA"/>
<path d="M42.1885 124.202C44.4399 126.268 47.6039 127.23 50.6131 127.829C51.3038 127.966 52.4214 128.236 53.0891 128.263C53.4692 128.278 53.8979 128.187 54.2722 128.191C55.8788 128.209 57.1317 128.713 58.644 127.751C58.6635 127.738 58.7299 127.774 58.7647 127.71L58.7307 127.668C58.4075 127.725 58.12 127.807 57.79 127.807C57.3426 127.807 56.8349 127.674 56.3773 127.648C55.9086 127.622 55.4332 127.677 54.9645 127.631C54.4176 127.578 53.8571 127.402 53.3042 127.354C53.0559 127.332 52.7582 127.37 52.5081 127.348C52.4392 127.342 51.9604 127.285 51.9391 127.266C51.866 127.204 51.8617 127.104 51.9485 127.059C51.9816 127.042 52.611 127.117 52.6859 127.073C53.0057 126.88 52.7072 126.391 52.5728 126.44C52.4341 126.491 52.3525 126.666 52.2104 126.748C52.0021 126.869 51.7154 126.776 51.496 126.743L49.7847 126.304C49.6511 126.369 49.7923 126.552 49.8655 126.595C49.8799 126.604 50.0577 126.638 50.0824 126.648C50.3597 126.767 50.6369 126.886 50.9151 127.002C50.8895 127.061 50.8921 127.089 50.8181 127.114C50.7739 127.129 50.0254 126.914 49.9157 126.884C48.6807 126.544 47.034 126.011 46.0695 125.205C45.8866 125.053 45.6995 124.806 45.5098 124.653C45.0795 124.306 44.1864 123.948 43.8598 123.561C43.8317 123.528 43.7228 123.383 43.7501 123.347L44.0222 123.147C44.0673 123.114 44.24 123.318 44.2544 123.331H44.2995C44.3369 123.365 44.8337 123.98 44.6806 123.528C44.53 123.083 44.1098 122.651 43.7603 122.355C43.6335 122.248 43.494 122.243 43.3979 122.058C43.375 122.015 43.2134 121.18 43.21 121.101C43.193 120.73 43.4226 120.369 43.5859 120.069C43.6965 119.865 43.8572 119.453 44.0605 119.346C44.2196 119.262 45.3755 119.635 45.6255 119.685C46.3042 119.818 46.9124 119.774 47.5818 120.019C47.683 120.056 47.8352 120.179 47.9381 120.214C48.1976 120.302 48.8491 120.228 49.1587 120.252C49.9148 120.309 50.7398 120.583 51.4492 120.751C53.3595 121.206 55.6449 121.807 57.6276 121.912C57.7773 121.919 58.735 121.934 58.8081 121.892C58.8847 121.848 58.7843 121.745 58.7358 121.708C58.6959 121.677 58.0741 121.565 57.9576 121.521C57.5944 121.386 57.2355 121.134 56.8833 120.981C56.1434 120.657 55.3277 120.477 54.5903 120.141C54.0527 119.895 53.5909 119.587 53.0976 119.277C52.9946 119.213 53.1103 119.185 52.9181 119.187L52.8841 119.149C52.85 119.156 52.5719 119.486 52.3219 119.542C52.1569 119.578 51.3378 119.407 51.126 119.363C50.1053 119.152 48.8652 118.837 47.8812 118.506C46.7584 118.129 45.7973 117.435 44.6644 117.127C43.8232 116.899 43.0645 117.319 42.4045 117.75C42.3194 117.805 42.1 117.958 42.0422 118.025C42.0073 118.067 41.9214 118.949 41.8933 119.09C41.7887 119.612 41.645 120.176 41.491 120.699C41.2682 121.455 40.8812 121.96 41.144 122.796C41.3473 123.443 41.7215 123.773 42.1885 124.202Z" fill="#E8EEEA"/>
<path d="M59.4222 124.223C59.4146 124.271 59.5302 124.418 59.5379 124.444C59.6161 124.719 59.5762 124.975 59.4477 125.225C59.4367 125.247 59.3202 125.358 59.3083 125.383C59.287 125.427 59.3448 125.667 59.3678 125.711C59.4367 125.843 59.4588 125.887 59.5345 125.736C59.5651 125.675 59.6195 124.97 59.6442 124.824C59.6859 124.578 59.8756 124.354 59.6561 124.129C59.5881 124.06 59.435 124.145 59.4222 124.223Z" fill="#E8EEEA"/>
<path d="M11.0491 94.9464C11.4387 97.9691 13.2418 100.73 15.1607 103.114C15.6012 103.661 16.2825 104.583 16.7775 105.03C17.0591 105.284 17.4461 105.489 17.7302 105.731C18.9498 106.772 19.5835 107.961 21.3637 108.191C21.3875 108.195 21.4139 108.264 21.4819 108.237L21.4836 108.183C21.1995 108.02 20.9257 107.899 20.673 107.688C20.3303 107.402 20.0275 106.975 19.6932 106.662C19.3513 106.342 18.9515 106.08 18.6224 105.746C18.2379 105.355 17.9224 104.861 17.5294 104.471C17.3534 104.296 17.1008 104.134 16.9238 103.957C16.8745 103.908 16.5445 103.559 16.5402 103.53C16.5249 103.436 16.5862 103.357 16.6814 103.377C16.718 103.385 17.1509 103.846 17.2377 103.86C17.6077 103.917 17.6944 103.352 17.5592 103.303C17.4206 103.253 17.2445 103.335 17.0829 103.307C16.8456 103.266 16.6857 103.012 16.5385 102.846L15.5111 101.414C15.3665 101.38 15.3563 101.609 15.3852 101.689C15.3903 101.705 15.5051 101.844 15.517 101.868C15.6523 102.137 15.7884 102.405 15.9262 102.672C15.8692 102.701 15.853 102.724 15.7799 102.695C15.7365 102.678 15.3019 102.035 15.2372 101.942C14.51 100.891 13.594 99.4301 13.3754 98.1951C13.3337 97.9615 13.3507 97.6525 13.3031 97.4138C13.1968 96.8738 12.7434 96.0282 12.7443 95.522C12.7443 95.4788 12.7545 95.2985 12.7978 95.2883L13.1355 95.3086C13.1908 95.312 13.1908 95.5795 13.1942 95.5981L13.2282 95.6269C13.235 95.6769 13.218 96.4658 13.3924 96.0214C13.5642 95.5837 13.5217 94.9845 13.4451 94.5341C13.417 94.3708 13.3133 94.2776 13.3592 94.0745C13.3703 94.0271 13.7845 93.2839 13.833 93.2204C14.0592 92.9258 14.4683 92.7963 14.7873 92.6702C15.0042 92.5847 15.3929 92.3722 15.6174 92.4196C15.7935 92.4569 16.4382 93.4819 16.5981 93.68C17.0319 94.2167 17.526 94.5722 17.8807 95.1876C17.9343 95.2807 17.9717 95.472 18.0279 95.5651C18.169 95.7996 18.7159 96.1594 18.9379 96.3752C19.4797 96.9034 19.9356 97.6398 20.3694 98.2231C21.5389 99.7941 22.9023 101.716 24.3525 103.065C24.4622 103.166 25.1869 103.79 25.2694 103.806C25.3562 103.821 25.3459 103.678 25.3332 103.618C25.3221 103.569 24.919 103.086 24.8577 102.979C24.6672 102.643 24.5549 102.22 24.384 101.876C24.0251 101.155 23.5173 100.495 23.1703 99.7662C22.9168 99.2346 22.762 98.703 22.5842 98.1503C22.5468 98.0351 22.654 98.0876 22.5051 97.9657L22.5043 97.9149C22.4737 97.8989 22.0475 97.9742 21.8196 97.8557C21.6699 97.7778 21.1528 97.1235 21.0192 96.9542C20.3737 96.1407 19.6269 95.1055 19.0868 94.2218C18.4701 93.2145 18.1827 92.0683 17.5133 91.1076C17.0166 90.394 16.1643 90.2306 15.381 90.1384C15.2797 90.1265 15.0127 90.1028 14.9251 90.1181C14.8715 90.1274 14.2361 90.7478 14.123 90.8384C13.7062 91.1711 13.2308 91.5114 12.7766 91.8127C12.1174 92.2495 11.4948 92.3892 11.1563 93.1975C10.8943 93.8231 10.9683 94.3183 11.0491 94.9464Z" fill="#E8EEEA"/>
<path d="M24.2368 105.987C24.2003 106.019 24.1935 106.206 24.1824 106.231C24.065 106.491 23.8686 106.662 23.6091 106.772C23.5862 106.781 23.4254 106.792 23.3999 106.803C23.3548 106.823 23.2443 107.044 23.2332 107.092C23.2009 107.237 23.1898 107.285 23.3455 107.219C23.4084 107.191 23.9051 106.686 24.0191 106.59C24.2096 106.428 24.4997 106.377 24.4767 106.065C24.4699 105.967 24.2964 105.935 24.2368 105.987Z" fill="#E8EEEA"/>
</svg>
